<mxfile host="app.diagrams.net" modified="2023-07-13T07:20:06.295Z" agent="Mozilla/5.0 (X11; Linux x86_64) AppleWebKit/537.36 (KHTML, like Gecko) Chrome/113.0.0.0 Safari/537.36" etag="kikJeOyGBF5cxRbEkz4M" version="21.6.2" type="github" pages="2">
  <diagram name="apb_filter" id="58blpnWMgleNtSX3L4EL">
    <mxGraphModel dx="1362" dy="775" grid="1" gridSize="10" guides="1" tooltips="1" connect="1" arrows="1" fold="1" page="1" pageScale="1" pageWidth="850" pageHeight="1100" math="0" shadow="0">
      <root>
        <mxCell id="0" />
        <mxCell id="1" parent="0" />
        <mxCell id="4vxmDNCd7WYk_Zc6Y8F2-32" value="" style="rounded=0;whiteSpace=wrap;html=1;fillColor=#d5e8d4;strokeColor=#82b366;" vertex="1" parent="1">
          <mxGeometry x="840" y="360" width="280" height="360" as="geometry" />
        </mxCell>
        <mxCell id="4vxmDNCd7WYk_Zc6Y8F2-25" value="" style="rounded=0;whiteSpace=wrap;html=1;fillColor=#dae8fc;strokeColor=#6c8ebf;" vertex="1" parent="1">
          <mxGeometry x="490" y="360" width="280" height="360" as="geometry" />
        </mxCell>
        <mxCell id="4vxmDNCd7WYk_Zc6Y8F2-21" value="" style="rounded=0;whiteSpace=wrap;html=1;fillColor=#ffe6cc;strokeColor=#d79b00;" vertex="1" parent="1">
          <mxGeometry x="43" y="360" width="407" height="360" as="geometry" />
        </mxCell>
        <mxCell id="4vxmDNCd7WYk_Zc6Y8F2-20" style="edgeStyle=orthogonalEdgeStyle;rounded=0;orthogonalLoop=1;jettySize=auto;html=1;" edge="1" parent="1" source="4vxmDNCd7WYk_Zc6Y8F2-1">
          <mxGeometry relative="1" as="geometry">
            <mxPoint x="240" y="280" as="targetPoint" />
          </mxGeometry>
        </mxCell>
        <mxCell id="4vxmDNCd7WYk_Zc6Y8F2-1" value="A55 core" style="rounded=0;whiteSpace=wrap;html=1;fillColor=#f8cecc;strokeColor=#b85450;" vertex="1" parent="1">
          <mxGeometry x="180" y="130" width="120" height="60" as="geometry" />
        </mxCell>
        <mxCell id="4vxmDNCd7WYk_Zc6Y8F2-23" style="edgeStyle=orthogonalEdgeStyle;rounded=0;orthogonalLoop=1;jettySize=auto;html=1;" edge="1" parent="1" source="4vxmDNCd7WYk_Zc6Y8F2-2">
          <mxGeometry relative="1" as="geometry">
            <mxPoint x="480" y="280" as="targetPoint" />
          </mxGeometry>
        </mxCell>
        <mxCell id="4vxmDNCd7WYk_Zc6Y8F2-2" value="master0" style="rounded=0;whiteSpace=wrap;html=1;fillColor=#f8cecc;strokeColor=#b85450;" vertex="1" parent="1">
          <mxGeometry x="420" y="127" width="120" height="60" as="geometry" />
        </mxCell>
        <mxCell id="4vxmDNCd7WYk_Zc6Y8F2-24" style="edgeStyle=orthogonalEdgeStyle;rounded=0;orthogonalLoop=1;jettySize=auto;html=1;" edge="1" parent="1" source="4vxmDNCd7WYk_Zc6Y8F2-3">
          <mxGeometry relative="1" as="geometry">
            <mxPoint x="700" y="280" as="targetPoint" />
          </mxGeometry>
        </mxCell>
        <mxCell id="4vxmDNCd7WYk_Zc6Y8F2-3" value="master1" style="rounded=0;whiteSpace=wrap;html=1;fillColor=#f8cecc;strokeColor=#b85450;" vertex="1" parent="1">
          <mxGeometry x="640" y="128" width="120" height="60" as="geometry" />
        </mxCell>
        <mxCell id="4vxmDNCd7WYk_Zc6Y8F2-4" value="TOP APB Filter" style="rounded=0;whiteSpace=wrap;html=1;fillColor=#d80073;fontColor=#ffffff;strokeColor=#A50040;" vertex="1" parent="1">
          <mxGeometry x="180" y="390" width="120" height="60" as="geometry" />
        </mxCell>
        <mxCell id="4vxmDNCd7WYk_Zc6Y8F2-5" value="AON APB Filter" style="rounded=0;whiteSpace=wrap;html=1;fillColor=#d80073;fontColor=#ffffff;strokeColor=#A50040;" vertex="1" parent="1">
          <mxGeometry x="570" y="390" width="120" height="60" as="geometry" />
        </mxCell>
        <mxCell id="4vxmDNCd7WYk_Zc6Y8F2-6" value="DSP APB Filter" style="rounded=0;whiteSpace=wrap;html=1;fillColor=#d80073;fontColor=#ffffff;strokeColor=#A50040;" vertex="1" parent="1">
          <mxGeometry x="920" y="390" width="120" height="60" as="geometry" />
        </mxCell>
        <mxCell id="4vxmDNCd7WYk_Zc6Y8F2-7" value="DEBUG" style="rounded=0;whiteSpace=wrap;html=1;" vertex="1" parent="1">
          <mxGeometry x="70" y="520" width="90" height="40" as="geometry" />
        </mxCell>
        <mxCell id="4vxmDNCd7WYk_Zc6Y8F2-8" value="DDR" style="rounded=0;whiteSpace=wrap;html=1;" vertex="1" parent="1">
          <mxGeometry x="180" y="520" width="90" height="40" as="geometry" />
        </mxCell>
        <mxCell id="4vxmDNCd7WYk_Zc6Y8F2-10" value="BPU" style="rounded=0;whiteSpace=wrap;html=1;" vertex="1" parent="1">
          <mxGeometry x="300" y="520" width="90" height="40" as="geometry" />
        </mxCell>
        <mxCell id="4vxmDNCd7WYk_Zc6Y8F2-11" value="codec" style="rounded=0;whiteSpace=wrap;html=1;" vertex="1" parent="1">
          <mxGeometry x="70" y="670" width="90" height="40" as="geometry" />
        </mxCell>
        <mxCell id="4vxmDNCd7WYk_Zc6Y8F2-12" value="GPU" style="rounded=0;whiteSpace=wrap;html=1;" vertex="1" parent="1">
          <mxGeometry x="70" y="570" width="90" height="40" as="geometry" />
        </mxCell>
        <mxCell id="4vxmDNCd7WYk_Zc6Y8F2-13" value="camera" style="rounded=0;whiteSpace=wrap;html=1;" vertex="1" parent="1">
          <mxGeometry x="180" y="572" width="90" height="40" as="geometry" />
        </mxCell>
        <mxCell id="4vxmDNCd7WYk_Zc6Y8F2-15" value="dis" style="rounded=0;whiteSpace=wrap;html=1;" vertex="1" parent="1">
          <mxGeometry x="300" y="570" width="90" height="40" as="geometry" />
        </mxCell>
        <mxCell id="4vxmDNCd7WYk_Zc6Y8F2-16" value="top_apb0" style="rounded=0;whiteSpace=wrap;html=1;" vertex="1" parent="1">
          <mxGeometry x="300" y="620" width="90" height="40" as="geometry" />
        </mxCell>
        <mxCell id="4vxmDNCd7WYk_Zc6Y8F2-17" value="top_dma" style="rounded=0;whiteSpace=wrap;html=1;" vertex="1" parent="1">
          <mxGeometry x="70" y="620" width="90" height="40" as="geometry" />
        </mxCell>
        <mxCell id="4vxmDNCd7WYk_Zc6Y8F2-18" value="lsio" style="rounded=0;whiteSpace=wrap;html=1;" vertex="1" parent="1">
          <mxGeometry x="180" y="620" width="90" height="40" as="geometry" />
        </mxCell>
        <mxCell id="4vxmDNCd7WYk_Zc6Y8F2-19" value="" style="shape=link;html=1;rounded=0;" edge="1" parent="1">
          <mxGeometry width="100" relative="1" as="geometry">
            <mxPoint x="60" y="280" as="sourcePoint" />
            <mxPoint x="1160" y="280" as="targetPoint" />
          </mxGeometry>
        </mxCell>
        <mxCell id="4vxmDNCd7WYk_Zc6Y8F2-22" value="" style="endArrow=classic;html=1;rounded=0;entryX=0.432;entryY=-0.006;entryDx=0;entryDy=0;entryPerimeter=0;" edge="1" parent="1">
          <mxGeometry width="50" height="50" relative="1" as="geometry">
            <mxPoint x="601.1800000000001" y="282.16" as="sourcePoint" />
            <mxPoint x="600.0040000000001" y="359.99999999999994" as="targetPoint" />
          </mxGeometry>
        </mxCell>
        <mxCell id="4vxmDNCd7WYk_Zc6Y8F2-26" value="GPIO" style="rounded=0;whiteSpace=wrap;html=1;" vertex="1" parent="1">
          <mxGeometry x="540" y="510" width="90" height="40" as="geometry" />
        </mxCell>
        <mxCell id="4vxmDNCd7WYk_Zc6Y8F2-27" value="RTC" style="rounded=0;whiteSpace=wrap;html=1;" vertex="1" parent="1">
          <mxGeometry x="650" y="510" width="90" height="40" as="geometry" />
        </mxCell>
        <mxCell id="4vxmDNCd7WYk_Zc6Y8F2-28" value="CRM" style="rounded=0;whiteSpace=wrap;html=1;" vertex="1" parent="1">
          <mxGeometry x="540" y="630" width="90" height="40" as="geometry" />
        </mxCell>
        <mxCell id="4vxmDNCd7WYk_Zc6Y8F2-29" value="PMU" style="rounded=0;whiteSpace=wrap;html=1;" vertex="1" parent="1">
          <mxGeometry x="540" y="570" width="90" height="40" as="geometry" />
        </mxCell>
        <mxCell id="4vxmDNCd7WYk_Zc6Y8F2-30" value="SLCR" style="rounded=0;whiteSpace=wrap;html=1;" vertex="1" parent="1">
          <mxGeometry x="650" y="570" width="90" height="40" as="geometry" />
        </mxCell>
        <mxCell id="4vxmDNCd7WYk_Zc6Y8F2-31" value="TS" style="rounded=0;whiteSpace=wrap;html=1;" vertex="1" parent="1">
          <mxGeometry x="650" y="630" width="90" height="40" as="geometry" />
        </mxCell>
        <mxCell id="4vxmDNCd7WYk_Zc6Y8F2-33" value="Timer" style="rounded=0;whiteSpace=wrap;html=1;" vertex="1" parent="1">
          <mxGeometry x="880" y="500" width="90" height="40" as="geometry" />
        </mxCell>
        <mxCell id="4vxmDNCd7WYk_Zc6Y8F2-34" value="I2C" style="rounded=0;whiteSpace=wrap;html=1;" vertex="1" parent="1">
          <mxGeometry x="1000" y="500" width="90" height="40" as="geometry" />
        </mxCell>
        <mxCell id="4vxmDNCd7WYk_Zc6Y8F2-35" value="I2S" style="rounded=0;whiteSpace=wrap;html=1;" vertex="1" parent="1">
          <mxGeometry x="880" y="560" width="90" height="40" as="geometry" />
        </mxCell>
        <mxCell id="4vxmDNCd7WYk_Zc6Y8F2-37" value="UART" style="rounded=0;whiteSpace=wrap;html=1;" vertex="1" parent="1">
          <mxGeometry x="1000" y="560" width="90" height="40" as="geometry" />
        </mxCell>
        <mxCell id="4vxmDNCd7WYk_Zc6Y8F2-38" value="PDM" style="rounded=0;whiteSpace=wrap;html=1;" vertex="1" parent="1">
          <mxGeometry x="880" y="612" width="90" height="40" as="geometry" />
        </mxCell>
        <mxCell id="4vxmDNCd7WYk_Zc6Y8F2-39" value="SPI" style="rounded=0;whiteSpace=wrap;html=1;" vertex="1" parent="1">
          <mxGeometry x="1000" y="612" width="90" height="40" as="geometry" />
        </mxCell>
        <mxCell id="4vxmDNCd7WYk_Zc6Y8F2-40" value="CRM" style="rounded=0;whiteSpace=wrap;html=1;" vertex="1" parent="1">
          <mxGeometry x="880" y="660" width="90" height="40" as="geometry" />
        </mxCell>
        <mxCell id="4vxmDNCd7WYk_Zc6Y8F2-41" value="" style="endArrow=classic;html=1;rounded=0;entryX=0.432;entryY=-0.006;entryDx=0;entryDy=0;entryPerimeter=0;" edge="1" parent="1">
          <mxGeometry width="50" height="50" relative="1" as="geometry">
            <mxPoint x="271.18000000000006" y="282.16" as="sourcePoint" />
            <mxPoint x="270.00400000000013" y="359.99999999999994" as="targetPoint" />
          </mxGeometry>
        </mxCell>
        <mxCell id="4vxmDNCd7WYk_Zc6Y8F2-42" value="" style="endArrow=classic;html=1;rounded=0;entryX=0.432;entryY=-0.006;entryDx=0;entryDy=0;entryPerimeter=0;" edge="1" parent="1">
          <mxGeometry width="50" height="50" relative="1" as="geometry">
            <mxPoint x="980.59" y="282.16" as="sourcePoint" />
            <mxPoint x="979.4140000000001" y="359.99999999999994" as="targetPoint" />
          </mxGeometry>
        </mxCell>
      </root>
    </mxGraphModel>
  </diagram>
  <diagram id="v-ZkczYPxCpT55Gb7uUg" name="Page-2">
    <mxGraphModel dx="1362" dy="775" grid="1" gridSize="10" guides="1" tooltips="1" connect="1" arrows="1" fold="1" page="1" pageScale="1" pageWidth="850" pageHeight="1100" math="0" shadow="0">
      <root>
        <mxCell id="0" />
        <mxCell id="1" parent="0" />
      </root>
    </mxGraphModel>
  </diagram>
</mxfile>
